# xmcd
# Track frame offsets:
# 150
# 12197
# 27732
# 41645
# 54907
# 68760
# 85787
# 102070
# 118177
# 134737
#
# Disc length: 1986 seconds
# Revision: 0
# Processed by: cddbd v1.5.1PL0 Copyright (c) Steve Scherf et al.
# Submitted via: VisiTrax 2.9.10.228 - For more info visit www.synapsa.com
#
DISCID=8407c00a
DTITLE=Various Artist - The Frontier Of Country - Volume 15
DYEAR=1900
DGENRE=Country
TTITLE0=Wylie and The Wild West - Jitterbug Boogie
TTITLE1=Rhonda Vincent - When I Close My Eyes
TTITLE2=Jimmie Dale Gilmore - No Lonesome Tune
TTITLE3=IIIrd Tyme Out - John And Mary
TTITLE4=Slaid Cleaves - Horseshoe Lounge
TTITLE5=Claire Lynch - Jealousy
TTITLE6=The Walt Wilkins Band - Don't Make Me Do It (Radio Edit)
TTITLE7=The Groobees - Ahead Of Time
TTITLE8=Jon Randall - Blew Me Away
TTITLE9=Baillie And The Boys - The Moment
EXTD=
EXTT0=
EXTT1=
EXTT2=
EXTT3=
EXTT4=
EXTT5=
EXTT6=
EXTT7=
EXTT8=
EXTT9=
PLAYORDER=
